<?xml version="1.0" encoding="UTF-8"?>
<svg id="Layer_1" xmlns="http://www.w3.org/2000/svg" version="1.1" viewBox="0 0 512 512">
  <!-- Generator: Adobe Illustrator 29.8.5, SVG Export Plug-In . SVG Version: 2.1.1 Build 2)  -->
  <path d="M283.7,227.5l102,18c.3,1.9-1.3,2.9-2.5,4-8.7,8.4-19.1,15.6-27.9,23.9-.8.8-.9.7-.6,2.1l96.4,52.9.6,3.1-175-17,4.5-6,52.5-42.5-55.7-28.3c-.8,0-11.5,9.1-11.8,9.8-1.6,3.2.2,10.5-1,15-1.4,5.6-8.9,11.1-9.3,12.7-1.9,6.2.3,27.4-.2,35.8s-1.6,8.5-1.2,12.8c-2.4,9.1-12-11.7-13.3-14.3-2.8-5.5-9.3-23.2-12.4-26.6s-10-3.4-14.1-7.9-6.1-12.5-6.9-13.1c-1.3-.9-8-1.3-10.7-2.3-4.8-1.6-9.3-5.7-13.8-8l-41.5,60.8,54.5,1,2.5,2.5-141,125.5c-2.3-2,4.1-10.5,5.6-12.9,19.6-31.9,41.9-62.3,62.4-93.6.4-2.3-1-1.4-2.5-1.5-11.7-.8-23.4-.8-35-2-1.5-.2-2.9.9-2.5-1.5l89.8-85c-9.2-11.5-12-25.5-10.9-40.1,1.1-14.7,11-25.6,19.1-37-1.3-30.4-6.7-60.7-8-91s-.5-12.7,1-18.5c2.9-1.9,10.2,8.6,11.8,10.7,19.7,26.2,35.3,57,53.7,84.3,15.3,5.2,31.1,11.9,39.3,26.7s9.5,32.3,2.2,47.3Z"/>
</svg>